<?xml version="1.0" encoding="UTF-8"?>
<svg id="Layer_1" data-name="Layer 1" xmlns="http://www.w3.org/2000/svg" version="1.1" viewBox="0 0 1677.94 707.1">
  <defs>
    <style>
      .cls-1 {
        fill: #fff;
        stroke-width: 0px;
      }
    </style>
  </defs>
  <g>
    <rect class="cls-1" x="933.77" y="162.37" width="7" height="55.85" transform="translate(285.24 889.98) rotate(-58.5)"/>
    <rect class="cls-1" x="1052.65" y="44.03" width="7" height="53.62" transform="translate(108.91 543.28) rotate(-30.35)"/>
    <rect class="cls-1" x="1354.74" y="68.26" width="52.49" height="7" transform="translate(585.07 1202.59) rotate(-57.84)"/>
    <rect class="cls-1" x="1472.9" y="186.84" width="52.85" height="7" transform="translate(100.12 761.7) rotate(-29.45)"/>
    <rect class="cls-1" x="1215.34" width="7" height="104.57"/>
    <rect class="cls-1" x="1378.98" y="611.29" width="7" height="53.62" transform="translate(-134.57 768.44) rotate(-29.69)"/>
    <rect class="cls-1" x="1031.44" y="629.95" width="52.49" height="7" transform="translate(-47.84 1179.12) rotate(-57.19)"/>
    <rect class="cls-1" x="1167.31" y="651.28" width="104.57" height="7" transform="translate(550.9 1866.8) rotate(-89.34)"/>
    <rect class="cls-1" x="1212.84" y="130.52" width="12" height="306.45"/>
    <rect class="cls-1" x="1280.29" y="263.73" width="32" height="346.48" transform="translate(135.83 1161.28) rotate(-50.6)"/>
    <rect class="cls-1" x="1134.86" y="287.43" width="295.97" height="52" transform="translate(168.1 1021.43) rotate(-46.15)"/>
    <circle class="cls-1" cx="1222.44" cy="376.31" r="43.11"/>
  </g>
  <path class="cls-1" d="M344.94,468.32c-7.08,7.81-13.53,15.73-20.81,22.81-17.3,16.83-37.39,29.39-60.15,37.61-18.11,6.54-36.79,9.94-55.98,11.25-18.46,1.26-36.67-.33-54.64-4.14-35.36-7.5-66.45-23.43-92.77-48.4-23.27-22.09-39.75-48.5-49.85-78.85-6.02-18.08-9.41-36.7-10.39-55.8-.79-15.37-.27-30.64,1.88-45.84,2.72-19.28,7.9-37.9,16.01-55.64,18.65-40.78,47.88-71.53,87.99-91.66,25.51-12.81,52.65-19.33,81.26-20.36,21.27-.76,42.14,1.25,62.58,6.91,27.33,7.55,51.74,20.66,72.23,40.43,7.04,6.8,13.27,14.44,19.9,21.67,1.99,2.17,2.06,3.79-.57,5.7-6.35,4.62-12.62,9.38-18.69,14.36-2.67,2.19-4.06,1.99-6.22-.71-12.41-15.49-27.07-28.32-44.75-37.66-18.69-9.88-38.58-15.29-59.56-17.18-23.54-2.13-46.58.23-68.96,7.84-41.89,14.24-72.61,41.31-92.03,81.04-9.77,20-14.83,41.28-16.48,63.45-1.4,18.82-.41,37.49,3.85,55.83,10.72,46.2,35.78,82.17,77.49,105.63,29.12,16.38,60.66,22.59,93.86,20.14,33.49-2.47,63.6-13.69,88.84-36.3,6.5-5.82,12.2-12.58,17.98-19.15,2.07-2.35,3.36-2.46,5.72-.54,5.69,4.62,11.62,8.95,17.42,13.43,1.43,1.1,2.75,2.34,4.84,4.12Z"/>
  <path class="cls-1" d="M782.8,385.16c-.2,44.1-10.6,77.65-35.32,106.04-16.16,18.56-36.08,31.72-59.19,40.09-17.29,6.26-35.23,9.91-53.51,9.07-58.99-2.73-104.02-28.45-130.49-82.55-10.53-21.52-14.15-44.8-13.76-68.7.48-28.74,7.26-55.7,22.89-80.08,16.91-26.36,40.41-44.64,69.55-55.81,21.52-8.25,43.93-11.72,66.74-9.14,59.63,6.76,102.24,36.88,124.15,93.67,6.69,17.34,9.25,35.67,8.93,47.41ZM750.26,391.78c-1.28-9.57-2.2-19.21-3.93-28.7-3.27-17.98-10.84-34.16-22.48-48.22-31.24-37.74-84.68-51.11-130.08-32.35-38.34,15.84-60.49,45.07-67.93,85.45-4.07,22.1-2.87,44.2,4.49,65.55,13.94,40.45,42.49,64.78,84.04,73.74,19.02,4.1,38.07,2.81,56.67-3.03,20.46-6.43,37.92-17.52,51.73-34.09,18.9-22.66,26.48-49.18,27.48-78.35Z"/>
  <path class="cls-1" d="M970.74,509.44c29.14-.38,54.73-9.92,75.6-30.48,6.09-6,10.96-13.3,15.91-20.34,2.03-2.89,3.46-3.15,6.27-1.46,5.94,3.57,12.05,6.87,18.09,10.28,4.21,2.38,4.32,2.6,1.8,6.9-15.06,25.59-36.4,43.96-63.82,55.31-14.78,6.12-30.17,9.56-46.14,10.27-48.4,2.16-89.1-14.34-121.01-50.96-16.44-18.86-26.11-41.22-30.53-65.83-4.56-25.4-3.82-50.62,3.16-75.49,11.14-39.71,35.24-69.08,71.85-87.95,29.12-15.01,60.19-19.72,92.34-14.18,40.74,7.02,72.6,27.9,94.05,63.73,2.7,4.51,2.61,4.67-1.84,7.17-6.16,3.46-12.38,6.83-18.44,10.47-2.65,1.6-3.95,1.18-5.53-1.48-10.68-17.92-25.44-31.52-44.32-40.41-22.14-10.42-45.34-13.38-69.34-8.37-37.98,7.93-65.34,29.37-81.35,64.88-5.88,13.04-8.73,26.87-9.74,41.06-1.62,22.76,1.78,44.73,12.07,65.22,14.33,28.53,37.23,47.08,67.6,56.62,10.84,3.4,21.93,5.06,33.3,5.05Z"/>
  <path class="cls-1" d="M1677.94,459.79c-.64,34.53-19.83,61.51-52.34,73.15-14.48,5.18-29.41,7.85-44.67,7.47-25.55-.65-49.17-7.28-68.36-25.3-13.9-13.05-22.25-29.22-26.17-47.8-.48-2.27.36-3.21,2.22-3.75,7.92-2.29,15.82-4.63,23.8-6.68.79-.2,2.69,1.24,3.01,2.26,3.06,9.69,7.07,18.89,13.45,26.88,13.1,16.42,30.42,24.34,51.22,24.9,17.21.47,33.48-2.75,47.11-14.08,14.74-12.25,18.96-28.41,15.78-46.68-3.02-17.35-15.03-27.96-29.63-35.44-15.11-7.73-30.81-14.33-46.44-21-18.46-7.87-35.89-17.13-49.63-32.25-29.8-32.79-22.79-88.77,22.81-109.01,32.79-14.55,65.36-12.83,95.89,7.12,14.8,9.67,23.99,23.86,29.54,40.49.72,2.16.47,3.59-2.18,4.4-7.13,2.16-14.2,4.54-21.22,7.03-2.66.94-3.06-.88-3.97-2.45-3.27-5.64-5.96-11.77-10.02-16.78-14.84-18.31-34.86-22.4-57.02-19.18-11.28,1.64-21.6,5.96-29.12,14.87-15.42,18.27-12.37,45.23,6.46,61.06,11.42,9.6,24.84,15.37,38.5,20.83,20.17,8.06,40.33,16.21,58.28,28.77,14.26,9.98,25.14,22.6,29.32,39.9,1.68,6.95,2.29,14.15,3.39,21.24Z"/>
  <path class="cls-1" d="M435.3,339.85c0,62.76,0,125.52,0,188.29q0,6.5-6.67,6.5c-7.47,0-14.94-.08-22.41.03-2.86.04-4.16-1-3.89-3.9.1-1.04.01-2.09.01-3.14,0-125.39,0-250.79,0-376.18,0-1.18.08-2.36,0-3.54-.18-2.49.84-3.54,3.42-3.51,8.78.09,17.56.09,26.34,0,2.39-.02,3.36.9,3.22,3.24-.08,1.3,0,2.62,0,3.93,0,62.76,0,125.52,0,188.29Z"/>
  <g>
    <path class="cls-1" d="M45.12,622.36c0-13.87,10.59-24.18,24.66-24.18,6.49,0,12.43,2.12,16.6,6.35l-1.43,1.5c-4.24-4.1-9.43-5.74-15.1-5.74-12.77,0-22.41,9.56-22.41,22.07s9.63,22.07,22.41,22.07c5.67,0,10.86-1.71,15.1-5.81l1.43,1.5c-4.17,4.3-10.11,6.42-16.6,6.42-14.07,0-24.66-10.32-24.66-24.18Z"/>
    <path class="cls-1" d="M104.69,628.5c0-10.52,7.45-17.97,17.42-17.97s17.42,7.45,17.42,17.97-7.38,17.97-17.42,17.97-17.42-7.45-17.42-17.97ZM137.27,628.5c0-9.43-6.49-15.85-15.17-15.85s-15.17,6.42-15.17,15.85,6.49,15.92,15.17,15.92,15.17-6.49,15.17-15.92Z"/>
    <path class="cls-1" d="M221.57,625.43v20.84h-2.25v-20.7c0-8.47-4.37-12.91-11.82-12.91-8.54,0-13.87,5.74-13.87,14.48v19.13h-2.25v-20.7c0-8.47-4.37-12.91-11.75-12.91-8.61,0-13.87,5.74-13.87,14.48v19.13h-2.25v-35.46h2.19v8.54c2.19-5.4,7.17-8.81,14.07-8.81s11.68,3.28,13.25,9.63c2.05-5.74,7.31-9.63,14.62-9.63,8.54,0,13.94,5.12,13.94,14.89Z"/>
    <path class="cls-1" d="M279.5,610.81v35.46h-2.19v-8.61c-2.19,5.47-7.1,8.81-13.87,8.81-9.02,0-14.69-5.06-14.69-14.82v-20.84h2.25v20.7c0,8.47,4.58,12.91,12.5,12.91,8.54,0,13.73-5.74,13.73-14.48v-19.13h2.25Z"/>
    <path class="cls-1" d="M338.52,625.43v20.84h-2.25v-20.7c0-8.47-4.51-12.91-12.23-12.91-8.88,0-14.28,5.74-14.28,14.48v19.13h-2.25v-35.46h2.19v8.68c2.25-5.47,7.38-8.95,14.55-8.95,8.68,0,14.28,5.12,14.28,14.89Z"/>
    <path class="cls-1" d="M364.96,599.33c0-1.23,1.03-2.25,2.25-2.25s2.25,1.02,2.25,2.19c0,1.23-1.02,2.25-2.25,2.25s-2.25-1.02-2.25-2.19ZM366.12,610.81h2.25v35.46h-2.25v-35.46Z"/>
    <path class="cls-1" d="M392.35,628.5c0-10.59,7.45-17.97,17.62-17.97,5.33,0,10.11,2.05,13.12,6.08l-1.71,1.44c-2.66-3.69-6.83-5.4-11.41-5.4-8.81,0-15.37,6.42-15.37,15.85s6.56,15.92,15.37,15.92c4.58,0,8.74-1.71,11.41-5.4l1.71,1.37c-3.01,4.03-7.79,6.08-13.12,6.08-10.18,0-17.62-7.38-17.62-17.97Z"/>
    <path class="cls-1" d="M471.46,623.31v22.95h-2.19v-7.1c-2.19,4.44-6.69,7.31-13.18,7.31-7.99,0-12.71-4.03-12.71-9.97,0-5.19,3.28-9.7,12.91-9.7h12.91v-3.48c0-7.04-3.76-10.73-10.93-10.73-5.12,0-9.63,1.91-12.64,4.78l-1.23-1.64c3.42-3.21,8.54-5.19,13.94-5.19,8.47,0,13.12,4.44,13.12,12.78ZM469.21,636.02v-7.38h-12.91c-7.72,0-10.66,3.28-10.66,7.72,0,5.06,3.96,8.2,10.59,8.2s10.79-3.07,12.98-8.54Z"/>
    <path class="cls-1" d="M524.13,639.02l1.71,1.37c-3.01,4.03-7.79,6.08-13.12,6.08h-.48l-1.02,3.55c3.55.21,5.74,2.32,5.74,5.4,0,3.35-2.8,5.53-6.63,5.53-1.98,0-3.69-.55-5.19-1.78l.89-1.43c1.09.96,2.66,1.5,4.3,1.5,2.73,0,4.71-1.37,4.71-3.89,0-2.25-1.71-3.83-4.71-3.83h-1.23l1.43-5.19c-9.02-.96-15.44-7.99-15.44-17.83,0-10.59,7.45-17.97,17.62-17.97,5.33,0,10.11,2.05,13.12,6.08l-1.71,1.44c-2.66-3.69-6.83-5.4-11.41-5.4-8.81,0-15.37,6.42-15.37,15.85s6.56,15.92,15.37,15.92c4.58,0,8.74-1.71,11.41-5.4Z"/>
    <path class="cls-1" d="M574.2,623.31v22.95h-2.19v-7.1c-2.19,4.44-6.69,7.31-13.18,7.31-7.99,0-12.71-4.03-12.71-9.97,0-5.19,3.28-9.7,12.91-9.7h12.91v-3.48c0-7.04-3.76-10.73-10.93-10.73-5.12,0-9.63,1.91-12.64,4.78l-1.23-1.64c3.42-3.21,8.54-5.19,13.94-5.19,8.47,0,13.12,4.44,13.12,12.78ZM571.95,636.02v-7.38h-12.91c-7.72,0-10.66,3.28-10.66,7.72,0,5.06,3.96,8.2,10.59,8.2s10.79-3.07,12.98-8.54ZM552.82,603.91h-1.71c.14-3.83,2.12-6.29,5.26-6.29,3.96,0,5.67,4.71,8.68,4.71,2.19,0,3.48-1.78,3.62-4.37h1.71c-.14,3.62-2.12,6.15-5.26,6.15-3.96,0-5.67-4.71-8.68-4.71-2.19,0-3.48,1.71-3.62,4.51Z"/>
    <path class="cls-1" d="M597.84,628.5c0-10.52,7.45-17.97,17.42-17.97s17.42,7.45,17.42,17.97-7.38,17.97-17.42,17.97-17.42-7.45-17.42-17.97ZM630.42,628.5c0-9.43-6.49-15.85-15.17-15.85s-15.17,6.42-15.17,15.85,6.49,15.92,15.17,15.92,15.17-6.49,15.17-15.92Z"/>
    <path class="cls-1" d="M724.9,598.45l-21.45,47.82h-2.25l-21.45-47.82h2.6l20.08,44.81,20.02-44.81h2.46Z"/>
    <path class="cls-1" d="M743.14,599.33c0-1.23,1.03-2.25,2.25-2.25s2.25,1.02,2.25,2.19c0,1.23-1.02,2.25-2.25,2.25s-2.25-1.02-2.25-2.19ZM744.3,610.81h2.25v35.46h-2.25v-35.46Z"/>
    <path class="cls-1" d="M769.1,641.76l1.09-1.78c2.66,2.39,7.45,4.51,12.98,4.51,7.99,0,11.2-3.01,11.2-7.38,0-11.2-23.98-3.28-23.98-17.15,0-5.06,4.1-9.43,12.98-9.43,4.37,0,9.15,1.44,11.89,3.62l-1.16,1.78c-2.87-2.25-6.9-3.35-10.79-3.35-7.38,0-10.59,3.21-10.59,7.31,0,11.55,23.91,3.76,23.91,17.22,0,5.53-4.58,9.36-13.53,9.36-5.81,0-11.27-1.98-14-4.71Z"/>
    <path class="cls-1" d="M849.84,610.81v35.46h-2.19v-8.61c-2.19,5.47-7.1,8.81-13.87,8.81-9.02,0-14.69-5.06-14.69-14.82v-20.84h2.25v20.7c0,8.47,4.58,12.91,12.5,12.91,8.54,0,13.73-5.74,13.73-14.48v-19.13h2.25Z"/>
    <path class="cls-1" d="M902.58,623.31v22.95h-2.19v-7.1c-2.19,4.44-6.69,7.31-13.18,7.31-7.99,0-12.71-4.03-12.71-9.97,0-5.19,3.28-9.7,12.91-9.7h12.91v-3.48c0-7.04-3.76-10.73-10.93-10.73-5.12,0-9.63,1.91-12.64,4.78l-1.23-1.64c3.42-3.21,8.54-5.19,13.94-5.19,8.47,0,13.12,4.44,13.12,12.78ZM900.33,636.02v-7.38h-12.91c-7.72,0-10.66,3.28-10.66,7.72,0,5.06,3.96,8.2,10.59,8.2s10.79-3.07,12.98-8.54Z"/>
    <path class="cls-1" d="M930.18,595.58h2.25v50.69h-2.25v-50.69Z"/>
  </g>
</svg>